<?xml version="1.0" encoding="UTF-8" standalone="no"?>
<svg
   xmlns:dc="http://purl.org/dc/elements/1.1/"
   xmlns:cc="http://creativecommons.org/ns#"
   xmlns:rdf="http://www.w3.org/1999/02/22-rdf-syntax-ns#"
   xmlns:svg="http://www.w3.org/2000/svg"
   xmlns="http://www.w3.org/2000/svg"
   xmlns:sodipodi="http://sodipodi.sourceforge.net/DTD/sodipodi-0.dtd"
   xmlns:inkscape="http://www.inkscape.org/namespaces/inkscape"
   id="wrenIcons_logo"
   width="1000"
   height="337.57651"
   viewBox="0 0 1000 337.57651"
   version="1.1"
   sodipodi:docname="A.svg"
   inkscape:version="0.92.4 (5da689c313, 2019-01-14)">
  <metadata
     id="metadata2081">
    <rdf:RDF>
      <cc:Work
         rdf:about="">
        <dc:format>image/svg+xml</dc:format>
        <dc:type
           rdf:resource="http://purl.org/dc/dcmitype/StillImage" />
        <dc:title></dc:title>
      </cc:Work>
    </rdf:RDF>
  </metadata>
  <defs
     id="defs2079" />
  <sodipodi:namedview
     pagecolor="#ffffff"
     bordercolor="#666666"
     borderopacity="1"
     objecttolerance="10"
     gridtolerance="10"
     guidetolerance="10"
     inkscape:pageopacity="0"
     inkscape:pageshadow="2"
     inkscape:window-width="1920"
     inkscape:window-height="1017"
     id="namedview2077"
     showgrid="false"
     fit-margin-top="0"
     fit-margin-left="0"
     fit-margin-right="0"
     fit-margin-bottom="0"
     inkscape:zoom="0.70127119"
     inkscape:cx="505.21057"
     inkscape:cy="-108.62961"
     inkscape:window-x="1912"
     inkscape:window-y="-8"
     inkscape:window-maximized="1"
     inkscape:current-layer="wrenIcons_logo" />
  <g
     id="g2074"
     style="fill:#27ae60;fill-opacity:1;fill-rule:evenodd;stroke:none;stroke-width:1"
     transform="matrix(2.1217882,0,0,2.1217882,-0.63653646,-1.0608941)">
    <g
       id="wren_kitchens_logo-white"
       style="fill:#27ae60;fill-opacity:1;fill-rule:nonzero">
      <g
         id="g2053"
         style="fill:#27ae60;fill-opacity:1">
        <path
           d="m 126.6,13.2 c 7.3,-4.8 12.2,-6.3 23,-4.8 6,0.9 9.6,4.1 17,8.1 1.9,-7.7 2.5,-10.9 2.5,-10.9 h -41.5 z"
           id="Shape"
           style="fill:#27ae60;fill-opacity:1"
           inkscape:connector-curvature="0" />
        <path
           d="m 133.7,40.4 c -2.3,-6 -1.9,-15.8 -8.3,-20 l -7,43.6 H 118 L 108,5.7 H 60 L 49.4,64 H 49 L 41.8,5.7 H 0.3 l 19,89.8 H 57.4 C 70.6,95.4 74.4,84.6 75.7,77.1 77.1,69.6 83,38.2 83,38.2 h 0.4 l 10.7,57.3 h 39.1 c 12,0 16.8,-12.3 18.4,-18.4 C 152,75.4 153,72.2 155,64 144.4,60.3 137.5,50.1 133.7,40.4 Z"
           id="path2043"
           style="fill:#27ae60;fill-opacity:1"
           inkscape:connector-curvature="0" />
        <path
           d="M 198.9,22.3 C 206.3,19.6 212.6,14 220.4,7.7 V 5.6 h -43.3 v 15.7 c 6.4,2.2 14.4,3.7 21.8,1 z"
           id="path2045"
           style="fill:#27ae60;fill-opacity:1"
           inkscape:connector-curvature="0" />
        <path
           d="m 177.1,95.6 h 24.8 c 18.5,0 18.5,-18.4 18.5,-18.4 V 48.5 c 0,-5.7 2.9,-11.3 11.1,-11.3 7.7,0 13.1,1.3 18.1,2.5 V 7.1 C 246.1,4.4 245.1,3.7 239.3,4 c 0,0 -2,0.2 -5.4,3 -1.4,1.3 -2.3,2.2 -3.1,2.9 0,0 -1.5,1.4 -3.2,3.2 -1.4,1.4 -2.9,2.7 -5,4.8 -3.2,3.1 -7,6.5 -10.8,10.2 0.6,0 -0.8,-0.1 0,0 0,0 0,0 6.3,-1.1 -4.1,4.4 -4.1,4.3 -6.4,6.6 2.2,-0.8 2.2,-0.9 4.6,-1.7 -5,6.7 -5,6.9 -9.4,12.6 2.9,2.7 2.9,2.8 7,6.6 -6.8,0 -6.8,0 -12.2,0 -7.2,6.2 -16.3,12.9 -21.9,16 l -1.4,0.9 -1.1,1.3 z"
           id="path2047"
           style="fill:#27ae60;fill-opacity:1"
           inkscape:connector-curvature="0" />
        <path
           d="m 310.5,0.5 c -32.2,0 -53.1,16.1 -53.1,47.1 0,36.3 23.6,48.1 49.9,48.1 33.6,0 49.2,-11.1 52.4,-31.5 h -37.9 c -1.3,6.4 -5.9,9.3 -10.7,9.3 -8.6,0 -12.2,-4.5 -12.2,-14.9 v -2.7 h 61.9 v -6.1 c 0,-32 -16.3,-49.3 -50.3,-49.3 z M 321.8,37 h -22.9 v -1.3 c 0,-8.6 4.7,-13.1 11.6,-13.1 6.8,0 11.3,4.5 11.3,13.1 z"
           id="path2049"
           style="fill:#27ae60;fill-opacity:1"
           inkscape:connector-curvature="0" />
        <path
           d="m 440.5,3 c -10.2,0 -20.9,3.4 -28.3,16.3 h -0.4 V 5.7 h -43.3 v 89.8 h 24.9 c 18.4,0 18.4,-18.4 18.4,-18.4 V 39.5 c 0,-7.2 3.8,-10 8.6,-10 5.2,0 7.9,3.8 7.9,10.4 v 55.6 h 24.9 c 18.40057,0 18.4,-18.4 18.4,-18.4 V 35.7 C 471.7,12 458.6,3 440.5,3 Z"
           id="path2051"
           style="fill:#27ae60;fill-opacity:1"
           inkscape:connector-curvature="0" />
      </g>
      <g
         transform="translate(63,119)"
         id="g2071"
         style="fill:#27ae60;fill-opacity:1">
        <polygon
           id="polygon2055"
           points="33.6,40 25.9,40 5.7,20.5 5.7,40 0,40 0,0.5 5.7,0.5 5.7,18.6 22.3,0.6 29.4,0.6 12.3,19.3 "
           style="fill:#27ae60;fill-opacity:1" />
        <polygon
           id="polygon2057"
           points="49.5,40.1 49.5,0.6 55.2,0.6 55.2,40.1 "
           style="fill:#27ae60;fill-opacity:1" />
        <polygon
           id="polygon2059"
           points="91.4,5.5 91.4,40 85.7,40 85.7,5.5 72.2,5.5 72.2,0.5 105.2,0.5 105.2,5.5 "
           style="fill:#27ae60;fill-opacity:1" />
        <path
           d="m 156.1,30.9 v 6.2 c -4.1,2.3 -8.9,3.4 -14.4,3.4 -4.4,0 -8.2,-0.9 -11.2,-2.7 -3.1,-1.8 -5.5,-4.2 -7.3,-7.3 -1.8,-3.1 -2.7,-6.5 -2.7,-10.1 0,-5.7 2,-10.6 6.1,-14.5 4.1,-3.9 9.2,-5.9 15.2,-5.9 4.1,0 8.8,1.1 13.8,3.3 v 6.1 c -4.6,-2.6 -9.1,-4 -13.5,-4 -4.5,0 -8.3,1.4 -11.3,4.3 -3,2.9 -4.5,6.4 -4.5,10.7 0,4.3 1.5,7.9 4.4,10.7 2.9,2.8 6.7,4.2 11.3,4.2 4.9,0 9.5,-1.4 14.1,-4.4 z"
           id="path2061"
           style="fill:#27ae60;fill-opacity:1"
           inkscape:connector-curvature="0" />
        <polygon
           id="polygon2063"
           points="202.5,40.1 202.5,22.9 180.3,22.9 180.3,40.1 174.6,40.1 174.6,0.6 180.3,0.6 180.3,17.7 202.5,17.7 202.5,0.6 208.2,0.6 208.2,40.1 "
           style="fill:#27ae60;fill-opacity:1" />
        <polygon
           id="polygon2065"
           points="234.1,5.6 234.1,17.6 250.3,17.6 250.3,22.7 234.1,22.7 234.1,35 251.4,35 251.4,40 228.5,40 228.5,0.6 228.4,0.6 250.8,0.6 250.8,5.6 "
           style="fill:#27ae60;fill-opacity:1" />
        <polygon
           id="polygon2067"
           points="300.8,40.1 274.4,9.7 274.4,40.1 269.1,40.1 269.1,0.6 273.7,0.6 300.3,31.3 300.3,0.6 305.7,0.6 305.7,40.1 "
           style="fill:#27ae60;fill-opacity:1" />
        <path
           d="m 335.5,23.5 -4.3,-2.6 c -2.7,-1.6 -4.6,-3.3 -5.8,-4.9 -1.1,-1.6 -1.7,-3.4 -1.7,-5.5 0,-3.1 1.1,-5.6 3.2,-7.6 2.2,-1.9 5,-2.9 8.4,-2.9 3.3,0 6.3,0.9 9.1,2.8 v 6.4 c -2.8,-2.7 -5.9,-4.1 -9.2,-4.1 -1.8,0 -3.4,0.4 -4.6,1.3 -1.2,0.9 -1.8,1.9 -1.8,3.3 0,1.2 0.4,2.3 1.3,3.3 0.9,1 2.3,2.1 4.2,3.3 l 4.3,2.6 c 4.8,2.9 7.2,6.5 7.2,11 0,3.2 -1.1,5.7 -3.2,7.7 -2.1,2 -4.9,3 -8.3,3 -3.9,0 -7.5,-1.2 -10.7,-3.6 v -7.2 c 3.1,3.9 6.6,5.8 10.6,5.8 1.8,0 3.2,-0.5 4.4,-1.5 1.2,-1 1.8,-2.2 1.8,-3.7 0.3,-2.4 -1.4,-4.7 -4.9,-6.9 z"
           id="path2069"
           style="fill:#27ae60;fill-opacity:1"
           inkscape:connector-curvature="0" />
      </g>
    </g>
  </g>
</svg>
